<svg width="160" height="160" viewBox="0 0 160 160" fill="none" xmlns="http://www.w3.org/2000/svg">
<circle cx="80" cy="80" r="78" fill="white" stroke="#5AAEFF" stroke-width="4"/>
<path d="M70.352 13.3145C76.6275 5.87254 87.6816 7.00928 87.7474 15.1033L88.2348 75.0976C88.2859 81.3974 81.2857 87.5488 74.7119 87.086L74.3993 87.0586L27.3975 82.2254L27.0885 82.1889C20.6783 81.3166 18.9532 74.2679 23.8375 68.4756L70.352 13.3145ZM39.9704 68.9313L73.0267 72.3305L72.684 30.1365L39.9704 68.9313Z" fill="#3C36A8"/>
<path d="M90.2631 146.685C83.9876 154.127 72.9335 152.991 72.8677 144.897L72.3803 84.9024C72.3291 78.6026 79.3294 72.4512 85.9032 72.914L86.2158 72.9414L133.218 77.7746L133.527 77.8111C139.937 78.6834 141.662 85.7321 136.778 91.5244L90.2631 146.685ZM120.645 91.0687L87.5884 87.6695L87.9311 129.863L120.645 91.0687Z" fill="#5AAEFF"/>
<path d="M107 80.5C107 95.6878 94.6878 108 79.5 108C64.3122 108 52 95.6878 52 80.5C52 65.3122 64.3122 53 79.5 53C94.6878 53 107 65.3122 107 80.5Z" fill="white"/>
<path d="M66.033 81.7993C64.8563 83.3214 62.6685 83.6013 61.1465 82.4246L60.7559 82.1227C59.2339 80.946 58.9539 78.7582 60.1306 77.2362L69.0061 65.7559C70.1828 64.2339 72.3706 63.9539 73.8926 65.1306L74.2832 65.4325C75.8052 66.6092 76.0852 68.797 74.9085 70.3191L66.033 81.7993Z" fill="#5AAEFF"/>
<path d="M66.033 77.4618C64.8563 75.9397 62.6685 75.6598 61.1465 76.8365L60.7559 77.1384C59.2339 78.3151 58.9539 80.5029 60.1306 82.0249L69.0061 93.5052C70.1828 95.0272 72.3706 95.3072 73.8926 94.1305L74.2832 93.8286C75.8052 92.6519 76.0852 90.4641 74.9085 88.942L66.033 77.4618Z" fill="#5AAEFF"/>
<path d="M93.0061 81.7993C94.1828 83.3214 96.3706 83.6013 97.8926 82.4246L98.2831 82.1227C99.8052 80.946 100.085 78.7582 98.9084 77.2362L90.033 65.7559C88.8563 64.2339 86.6685 63.9539 85.1465 65.1306L84.7559 65.4325C83.2339 66.6092 82.9539 68.797 84.1306 70.3191L93.0061 81.7993Z" fill="#3C36A8"/>
<path d="M93.0061 77.4618C94.1828 75.9397 96.3706 75.6598 97.8926 76.8365L98.2831 77.1384C99.8052 78.3151 100.085 80.5029 98.9084 82.0249L90.033 93.5052C88.8563 95.0272 86.6685 95.3072 85.1465 94.1305L84.7559 93.8286C83.2339 92.6519 82.9539 90.4641 84.1306 88.942L93.0061 77.4618Z" fill="#3C36A8"/>
</svg>
